<svg width="147" height="58" viewBox="0 0 147 58" fill="none" xmlns="http://www.w3.org/2000/svg">
<path d="M57.4789 3L2.99999 34.4534" stroke="black" stroke-width="5" stroke-linecap="round"/>
<circle cx="21.1166" cy="35.318" r="4.68204" fill="black"/>
<circle cx="50.1453" cy="18.4626" r="4.68204" fill="black"/>
<path d="M40.75 57.25C38.2396 57.25 36.4271 56.625 35.3125 55.375C34.2083 54.125 33.6562 52.1354 33.6562 49.4062V46.7188H39.0938V50.1562C39.0938 50.7917 39.1875 51.2917 39.375 51.6562C39.5729 52.0104 39.9115 52.1875 40.3906 52.1875C40.8906 52.1875 41.2344 52.0417 41.4219 51.75C41.6198 51.4583 41.7188 50.9792 41.7188 50.3125C41.7188 49.4688 41.6354 48.7656 41.4688 48.2031C41.3021 47.6302 41.0104 47.0885 40.5938 46.5781C40.1875 46.0573 39.6198 45.4531 38.8906 44.7656L36.4219 42.4219C34.5781 40.6823 33.6562 38.6927 33.6562 36.4531C33.6562 34.1094 34.1979 32.3229 35.2812 31.0938C36.375 29.8646 37.9531 29.25 40.0156 29.25C42.5365 29.25 44.3229 29.9219 45.375 31.2656C46.4375 32.6094 46.9688 34.651 46.9688 37.3906H41.375V35.5C41.375 35.125 41.2656 34.8333 41.0469 34.625C40.8385 34.4167 40.5521 34.3125 40.1875 34.3125C39.75 34.3125 39.4271 34.4375 39.2188 34.6875C39.0208 34.9271 38.9219 35.2396 38.9219 35.625C38.9219 36.0104 39.026 36.4271 39.2344 36.875C39.4427 37.3229 39.8542 37.8385 40.4688 38.4219L43.6406 41.4688C44.276 42.0729 44.8594 42.7135 45.3906 43.3906C45.9219 44.0573 46.349 44.8385 46.6719 45.7344C46.9948 46.6198 47.1562 47.7031 47.1562 48.9844C47.1562 51.5677 46.6771 53.5938 45.7188 55.0625C44.7708 56.5208 43.1146 57.25 40.75 57.25ZM55.3594 57.25C53.0677 57.25 51.3802 56.6094 50.2969 55.3281C49.2135 54.0365 48.6719 52.1406 48.6719 49.6406V29.5H54.0156V49.4219C54.0156 49.8802 54.0417 50.3229 54.0938 50.75C54.1458 51.1667 54.2656 51.5104 54.4531 51.7812C54.6406 52.0521 54.9427 52.1875 55.3594 52.1875C55.7865 52.1875 56.0938 52.0573 56.2812 51.7969C56.4688 51.526 56.5833 51.1771 56.625 50.75C56.6771 50.3229 56.7031 49.8802 56.7031 49.4219V29.5H62.0469V49.6406C62.0469 52.1406 61.5052 54.0365 60.4219 55.3281C59.3385 56.6094 57.651 57.25 55.3594 57.25ZM64.1562 57V29.5H71.6094C73.6094 29.5 75.0625 29.9896 75.9688 30.9688C76.8854 31.9375 77.3438 33.5417 77.3438 35.7812V36.9844C77.3438 38.276 77.1094 39.3229 76.6406 40.125C76.1823 40.9271 75.4792 41.4531 74.5312 41.7031C75.7708 42.0156 76.599 42.75 77.0156 43.9062C77.4427 45.0521 77.6562 46.4531 77.6562 48.1094C77.6562 49.8906 77.4896 51.4479 77.1562 52.7812C76.8229 54.1146 76.2188 55.151 75.3438 55.8906C74.4688 56.6302 73.224 57 71.6094 57H64.1562ZM69.5312 39.8594H70.6562C71.1667 39.8594 71.4948 39.6615 71.6406 39.2656C71.7865 38.8698 71.8594 38.3958 71.8594 37.8438V35.0781C71.8594 34.1927 71.4688 33.75 70.6875 33.75H69.5312V39.8594ZM70.0781 52.1562C71.5052 52.1562 72.2188 51.4792 72.2188 50.125V46.6875C72.2188 45.9062 72.099 45.2917 71.8594 44.8438C71.6302 44.3854 71.1927 44.1562 70.5469 44.1562H69.5312V52.125C69.7604 52.1458 69.9427 52.1562 70.0781 52.1562ZM85.8281 57.25C83.5365 57.25 81.849 56.6094 80.7656 55.3281C79.6823 54.0365 79.1406 52.1406 79.1406 49.6406V29.5H84.4844V49.4219C84.4844 49.8802 84.5104 50.3229 84.5625 50.75C84.6146 51.1667 84.7344 51.5104 84.9219 51.7812C85.1094 52.0521 85.4115 52.1875 85.8281 52.1875C86.2552 52.1875 86.5625 52.0573 86.75 51.7969C86.9375 51.526 87.0521 51.1771 87.0938 50.75C87.1458 50.3229 87.1719 49.8802 87.1719 49.4219V29.5H92.5156V49.6406C92.5156 52.1406 91.974 54.0365 90.8906 55.3281C89.8073 56.6094 88.1198 57.25 85.8281 57.25ZM94.625 57V29.5H103.062C104.469 29.5 105.531 29.8229 106.25 30.4688C106.969 31.1042 107.448 32 107.688 33.1562C107.938 34.3021 108.062 35.651 108.062 37.2031C108.062 38.7031 107.87 39.901 107.484 40.7969C107.109 41.6927 106.396 42.3125 105.344 42.6562C106.208 42.8333 106.812 43.2656 107.156 43.9531C107.51 44.6302 107.688 45.5104 107.688 46.5938V57H102.266V46.2344C102.266 45.4323 102.099 44.9375 101.766 44.75C101.443 44.5521 100.917 44.4531 100.188 44.4531V57H94.625ZM100.219 39.6875H101.547C102.307 39.6875 102.688 38.8594 102.688 37.2031C102.688 36.1302 102.604 35.4271 102.438 35.0938C102.271 34.7604 101.958 34.5938 101.5 34.5938H100.219V39.6875ZM109.875 57V29.5H117.328C119.328 29.5 120.781 29.9896 121.688 30.9688C122.604 31.9375 123.062 33.5417 123.062 35.7812V36.9844C123.062 38.276 122.828 39.3229 122.359 40.125C121.901 40.9271 121.198 41.4531 120.25 41.7031C121.49 42.0156 122.318 42.75 122.734 43.9062C123.161 45.0521 123.375 46.4531 123.375 48.1094C123.375 49.8906 123.208 51.4479 122.875 52.7812C122.542 54.1146 121.938 55.151 121.062 55.8906C120.188 56.6302 118.943 57 117.328 57H109.875ZM115.25 39.8594H116.375C116.885 39.8594 117.214 39.6615 117.359 39.2656C117.505 38.8698 117.578 38.3958 117.578 37.8438V35.0781C117.578 34.1927 117.188 33.75 116.406 33.75H115.25V39.8594ZM115.797 52.1562C117.224 52.1562 117.938 51.4792 117.938 50.125V46.6875C117.938 45.9062 117.818 45.2917 117.578 44.8438C117.349 44.3854 116.911 44.1562 116.266 44.1562H115.25V52.125C115.479 52.1458 115.661 52.1562 115.797 52.1562ZM124.938 57V29.5H130.25V57H124.938ZM131.688 57L134.344 29.5H143.672L146.281 57H141.078L140.688 52.5625H137.375L137.031 57H131.688ZM137.766 48.1719H140.266L139.062 34.1875H138.812L137.766 48.1719Z" fill="black"/>
</svg>
